<svg height="auto" viewBox="0 0 2000 1400" xmlns="http://www.w3.org/2000/svg"><path d="M0 1400h80V397.814q0-4-4-4H4q-4 0-4 4ZM100 1400h80V595.93q0-4-4-4h-72q-4 0-4 4ZM200 1400h80V309.122q0-4-4-4h-72q-4 0-4 4ZM300 1400h80V257.448q0-4-4-4h-72q-4 0-4 4ZM400 1400h80V570.035q0-4-4-4h-72q-4 0-4 4ZM500 1400h80V732.43q0-4-4-4h-72q-4 0-4 4ZM600 1400h80V370.25q0-4-4-4h-72q-4 0-4 4ZM700 1400h80V205.905q0-4-4-4h-72q-4 0-4 4ZM800 1400h80V636.678q0-4-4-4h-72q-4 0-4 4ZM900 1400h80V411.693q0-4-4-4h-72q-4 0-4 4ZM1000 1400h80v-387.357q0-4-4-4h-72q-4 0-4 4ZM1100 1400h80V610.752q0-4-4-4h-72q-4 0-4 4ZM1200 1400h80V369.112q0-4-4-4h-72q-4 0-4 4ZM1300 1400h80V841.89q0-4-4-4h-72q-4 0-4 4ZM1400 1400h80V294.999q0-4-4-4h-72q-4 0-4 4ZM1500 1400h80V744.616q0-4-4-4h-72q-4 0-4 4ZM1600 1400h80v-297.598q0-4-4-4h-72q-4 0-4 4ZM1700 1400h80V392.464q0-4-4-4h-72q-4 0-4 4ZM1800 1400h80V339.96q0-4-4-4h-72q-4 0-4 4ZM1900 1400h80V942.5q0-4-4-4h-72q-4 0-4 4Z" fill="#444cf7"/></svg>