<svg height="auto" viewBox="0 0 2000 1400" xmlns="http://www.w3.org/2000/svg"><path d="M0 24.982C21 32.365 63 50.179 105 61.9s63-.15 105 21.688c42 21.838 63 46.793 105 87.501 42 40.708 63 102.31 105 116.038 42 13.728 63-68.58 105-47.397s63 104.692 105 153.311c42 48.62 63 96.536 105 89.788 42-6.748 63-112.2 105-123.528 42-11.327 63-2.372 105 66.889s63 277.048 105 279.418c42 2.369 63-230.225 105-267.572 42-37.346 63 5.802 105 80.837s63 205.052 105 294.336c42 89.285 63 171.382 105 152.088 42-19.294 63-273.658 105-248.557 42 25.102 63 289.675 105 374.064 42 84.39 63 112.073 105 47.884 42-64.188 63-377.27 105-368.824 42 8.445 84 328.84 105 411.05" fill="#444cf71a"/><path d="M0 24.982C21 32.365 63 50.179 105 61.9s63-.15 105 21.688c42 21.838 63 46.793 105 87.501 42 40.708 63 102.31 105 116.038 42 13.728 63-68.58 105-47.397s63 104.692 105 153.311c42 48.62 63 96.536 105 89.788 42-6.748 63-112.2 105-123.528 42-11.327 63-2.372 105 66.889s63 277.048 105 279.418c42 2.369 63-230.225 105-267.572 42-37.346 63 5.802 105 80.837s63 205.052 105 294.336c42 89.285 63 171.382 105 152.088 42-19.294 63-273.658 105-248.557 42 25.102 63 289.675 105 374.064 42 84.39 63 112.073 105 47.884 42-64.188 63-377.27 105-368.824 42 8.445 84 328.84 105 411.05" fill="none" stroke="#444cf7" stroke-width="4"/><g fill="#444cf7"><circle cy="24.982" r="8"/>,<circle cx="105" cy="61.9" r="8"/>,<circle cx="210" cy="83.588" r="8"/>,<circle cx="315" cy="171.089" r="8"/>,<circle cx="420" cy="287.127" r="8"/>,<circle cx="525" cy="239.73" r="8"/>,<circle cx="630" cy="393.041" r="8"/>,<circle cx="735" cy="482.829" r="8"/>,<circle cx="840" cy="359.301" r="8"/>,<circle cx="945" cy="426.19" r="8"/>,<circle cx="1050" cy="705.608" r="8"/>,<circle cx="1155" cy="438.036" r="8"/>,<circle cx="1260" cy="518.873" r="8"/>,<circle cx="1365" cy="813.209" r="8"/>,<circle cx="1470" cy="965.297" r="8"/>,<circle cx="1575" cy="716.74" r="8"/>,<circle cx="1680" cy="1090.804" r="8"/>,<circle cx="1785" cy="1138.688" r="8"/>,<circle cx="1890" cy="769.864" r="8"/>,<circle cx="1995" cy="1180.914" r="8"/></g></svg>