<svg height="auto" viewBox="0 0 2000 1400" xmlns="http://www.w3.org/2000/svg"><path d="M0 1400h80v-6.423q0-4-4-4H4q-4 0-4 4ZM100 1400h80v-65.376q0-4-4-4h-72q-4 0-4 4ZM200 1400h80v-74.233q0-4-4-4h-72q-4 0-4 4ZM300 1400h80v-191.408q0-4-4-4h-72q-4 0-4 4ZM400 1400h80v-174.785q0-4-4-4h-72q-4 0-4 4ZM500 1400h80v-192.389q0-4-4-4h-72q-4 0-4 4ZM600 1400h80V981q0-4-4-4h-72q-4 0-4 4ZM700 1400h80v-396.062q0-4-4-4h-72q-4 0-4 4ZM800 1400h80v-368.968q0-4-4-4h-72q-4 0-4 4ZM900 1400h80V893.958q0-4-4-4h-72q-4 0-4 4ZM1000 1400h80V980.54q0-4-4-4h-72q-4 0-4 4ZM1100 1400h80V876.917q0-4-4-4h-72q-4 0-4 4ZM1200 1400h80V735.928q0-4-4-4h-72q-4 0-4 4ZM1300 1400h80V558.604q0-4-4-4h-72q-4 0-4 4ZM1400 1400h80V762.985q0-4-4-4h-72q-4 0-4 4ZM1500 1400h80V408.096q0-4-4-4h-72q-4 0-4 4ZM1600 1400h80V525.203q0-4-4-4h-72q-4 0-4 4ZM1700 1400h80V737.725q0-4-4-4h-72q-4 0-4 4ZM1800 1400h80V180.033q0-4-4-4h-72q-4 0-4 4ZM1900 1400h80V225.966q0-4-4-4h-72q-4 0-4 4Z" fill="#444cf7"/></svg>