<svg height="auto" viewBox="0 0 2000 1400" xmlns="http://www.w3.org/2000/svg"><path d="M0 1398.514c21-10.077 63-28.04 105-50.382 42-22.343 63-36.196 105-61.332 42-25.135 63-39.329 105-64.344 42-25.015 63-44.578 105-60.732 42-16.154 63-22.833 105-20.036 42 2.796 63 43.04 105 34.019 42-9.022 63-58.29 105-79.127 42-20.836 63 16.157 105-25.054 42-41.212 63-137.072 105-181.003 42-43.93 63 3.011 105-38.65 42-41.662 63-120.013 105-169.658 42-49.644 63-107.741 105-78.563 42 29.18 63 238.107 105 224.458 42-13.649 63-265.16 105-292.703 42-27.543 63 118.978 105 154.987s63 84.642 105 25.057c42-59.585 63-233.43 105-322.983s63-182.446 105-124.784c42 57.661 84 330.475 105 413.093" fill="#444cf71a"/><path d="M0 1398.514c21-10.077 63-28.04 105-50.382 42-22.343 63-36.196 105-61.332 42-25.135 63-39.329 105-64.344 42-25.015 63-44.578 105-60.732 42-16.154 63-22.833 105-20.036 42 2.796 63 43.04 105 34.019 42-9.022 63-58.29 105-79.127 42-20.836 63 16.157 105-25.054 42-41.212 63-137.072 105-181.003 42-43.93 63 3.011 105-38.65 42-41.662 63-120.013 105-169.658 42-49.644 63-107.741 105-78.563 42 29.18 63 238.107 105 224.458 42-13.649 63-265.16 105-292.703 42-27.543 63 118.978 105 154.987s63 84.642 105 25.057c42-59.585 63-233.43 105-322.983s63-182.446 105-124.784c42 57.661 84 330.475 105 413.093" fill="none" stroke="#444cf7" stroke-width="4"/><g fill="#444cf7"><circle cy="1398.514" r="8"/>,<circle cx="105" cy="1348.132" r="8"/>,<circle cx="210" cy="1286.8" r="8"/>,<circle cx="315" cy="1222.456" r="8"/>,<circle cx="420" cy="1161.724" r="8"/>,<circle cx="525" cy="1141.688" r="8"/>,<circle cx="630" cy="1175.707" r="8"/>,<circle cx="735" cy="1096.58" r="8"/>,<circle cx="840" cy="1071.526" r="8"/>,<circle cx="945" cy="890.523" r="8"/>,<circle cx="1050" cy="851.873" r="8"/>,<circle cx="1155" cy="682.215" r="8"/>,<circle cx="1260" cy="603.652" r="8"/>,<circle cx="1365" cy="828.11" r="8"/>,<circle cx="1470" cy="535.407" r="8"/>,<circle cx="1575" cy="690.394" r="8"/>,<circle cx="1680" cy="715.451" r="8"/>,<circle cx="1785" cy="392.468" r="8"/>,<circle cx="1890" cy="267.684" r="8"/>,<circle cx="1995" cy="680.777" r="8"/></g></svg>