<svg height="auto" viewBox="0 0 2000 1400" xmlns="http://www.w3.org/2000/svg"><path d="M0 734.949c21-30.325 63-39.103 105-151.626s63-488.07 105-410.989c42 77.081 63 743.12 105 796.395 42 53.275 63-458.378 105-530.02 42-71.641 63 40.424 105 171.81 42 131.387 63 503.57 105 485.123 42-18.446 63-393.349 105-577.355 42-184.007 63-457.084 105-342.678 42 114.405 63 905.264 105 914.703 42 9.44 63-828.26 105-867.508 42-39.248 63 559.57 105 671.269 42 111.699 63-121.05 105-112.774 42 8.276 63 168.816 105 154.156 42-14.66 63-83.316 105-227.456s63-454.17 105-493.24c42-39.072 63 125.564 105 297.884 42 172.32 63 510.255 105 563.714 42 53.458 63-227.352 105-296.422 42-69.07 84-39.14 105-48.926" fill="#444cf71a"/><path d="M0 734.949c21-30.325 63-39.103 105-151.626s63-488.07 105-410.989c42 77.081 63 743.12 105 796.395 42 53.275 63-458.378 105-530.02 42-71.641 63 40.424 105 171.81 42 131.387 63 503.57 105 485.123 42-18.446 63-393.349 105-577.355 42-184.007 63-457.084 105-342.678 42 114.405 63 905.264 105 914.703 42 9.44 63-828.26 105-867.508 42-39.248 63 559.57 105 671.269 42 111.699 63-121.05 105-112.774 42 8.276 63 168.816 105 154.156 42-14.66 63-83.316 105-227.456s63-454.17 105-493.24c42-39.072 63 125.564 105 297.884 42 172.32 63 510.255 105 563.714 42 53.458 63-227.352 105-296.422 42-69.07 84-39.14 105-48.926" fill="none" stroke="#444cf7" stroke-width="4"/><g fill="#444cf7"><circle cy="734.949" r="8"/>,<circle cx="105" cy="583.323" r="8"/>,<circle cx="210" cy="172.334" r="8"/>,<circle cx="315" cy="968.729" r="8"/>,<circle cx="420" cy="438.709" r="8"/>,<circle cx="525" cy="610.519" r="8"/>,<circle cx="630" cy="1095.642" r="8"/>,<circle cx="735" cy="518.287" r="8"/>,<circle cx="840" cy="175.609" r="8"/>,<circle cx="945" cy="1090.312" r="8"/>,<circle cx="1050" cy="222.804" r="8"/>,<circle cx="1155" cy="894.073" r="8"/>,<circle cx="1260" cy="781.299" r="8"/>,<circle cx="1365" cy="935.455" r="8"/>,<circle cx="1470" cy="707.999" r="8"/>,<circle cx="1575" cy="214.758" r="8"/>,<circle cx="1680" cy="512.643" r="8"/>,<circle cx="1785" cy="1076.357" r="8"/>,<circle cx="1890" cy="779.935" r="8"/>,<circle cx="1995" cy="731.009" r="8"/></g></svg>