<svg height="auto" viewBox="0 0 2000 1400" xmlns="http://www.w3.org/2000/svg"><path d="M0 1400h80V24.044q0-4-4-4H4q-4 0-4 4ZM100 1400h80V42.267q0-4-4-4h-72q-4 0-4 4ZM200 1400h80V93.563q0-4-4-4h-72q-4 0-4 4ZM300 1400h80V140.886q0-4-4-4h-72q-4 0-4 4ZM400 1400h80V190.966q0-4-4-4h-72q-4 0-4 4ZM500 1400h80V360.078q0-4-4-4h-72q-4 0-4 4ZM600 1400h80V374.403q0-4-4-4h-72q-4 0-4 4ZM700 1400h80V444.331q0-4-4-4h-72q-4 0-4 4ZM800 1400h80V374.167q0-4-4-4h-72q-4 0-4 4ZM900 1400h80V558.81q0-4-4-4h-72q-4 0-4 4ZM1000 1400h80V694.71q0-4-4-4h-72q-4 0-4 4ZM1100 1400h80V501.495q0-4-4-4h-72q-4 0-4 4ZM1200 1400h80V739.5q0-4-4-4h-72q-4 0-4 4ZM1300 1400h80V964.685q0-4-4-4h-72q-4 0-4 4ZM1400 1400h80V910.433q0-4-4-4h-72q-4 0-4 4ZM1500 1400h80V786.421q0-4-4-4h-72q-4 0-4 4ZM1600 1400h80V823.014q0-4-4-4h-72q-4 0-4 4ZM1700 1400h80V647.67q0-4-4-4h-72q-4 0-4 4ZM1800 1400h80V672.67q0-4-4-4h-72q-4 0-4 4ZM1900 1400h80V902.417q0-4-4-4h-72q-4 0-4 4Z" fill="#444cf7"/></svg>